<svg width="80" height="60" viewBox="0 0 80 60" fill="none" xmlns="http://www.w3.org/2000/svg">
<path d="M75.2155 0.919922H4.7717C2.5063 0.919922 0.652344 3.08196 0.652344 5.21992C0.652344 7.35788 2.5063 9.5182 4.7717 9.5182H5.76671V18.1182H74.3205V9.5182H75.2155C77.4826 9.5182 79.3349 7.35788 79.3349 5.21992C79.3349 3.08196 77.4826 0.919922 75.2155 0.919922ZM39.9936 13.8543C38.856 13.8543 37.9348 12.8584 37.9348 11.6321C37.9348 10.4057 38.856 9.40984 39.9936 9.40984C41.1329 9.40984 42.0525 10.4057 42.0525 11.6321C42.0525 12.8584 41.1329 13.8543 39.9936 13.8543ZM5.76671 35.3165H74.3205V21.5599H5.76671V35.3165ZM39.9936 26.0732C41.1329 26.0732 42.0525 27.0674 42.0525 28.2937C42.0525 29.5218 41.1329 30.516 39.9936 30.516C38.856 30.516 37.9348 29.5218 37.9348 28.2937C37.9331 27.0674 38.856 26.0732 39.9936 26.0732ZM5.76671 47.1793V57.1794C5.76671 58.4006 5.9126 59.4016 7.0453 59.4016H15.2807C16.4134 59.4016 16.9265 58.4006 16.9265 57.1794V50.7982H63.1607V57.1794C63.1607 58.4006 63.5738 59.4016 64.7048 59.4016H72.9419C74.0714 59.4016 74.3189 58.4006 74.3189 57.1794V38.7599H5.76671V47.1793ZM39.9936 42.7366C41.1329 42.7366 42.0525 43.7324 42.0525 44.9571C42.0525 46.1869 41.1329 47.1776 39.9936 47.1776C38.856 47.1776 37.9348 46.1869 37.9348 44.9571C37.9331 43.7342 38.856 42.7366 39.9936 42.7366Z" fill="#0A3625"/>
</svg>
