<svg width="55" height="54" viewBox="0 0 55 54" fill="none" xmlns="http://www.w3.org/2000/svg">
<path d="M15.9749 0.536133C7.16571 0.536133 0 7.44283 0 15.928V37.9101C0 46.3931 7.17234 53.2934 15.9838 53.2934H38.8115C47.6207 53.2934 54.7864 46.3867 54.7864 37.9016V15.9194C54.7864 7.43645 47.614 0.536133 38.8026 0.536133H15.9749ZM43.3726 9.32901C44.6326 9.32901 45.6553 10.3138 45.6553 11.5272C45.6553 12.7406 44.6326 13.7254 43.3726 13.7254C42.1125 13.7254 41.0898 12.7406 41.0898 11.5272C41.0898 10.3138 42.1125 9.32901 43.3726 9.32901ZM27.3932 13.7254C34.9469 13.7254 41.0898 19.6409 41.0898 26.9148C41.0898 34.1887 34.9469 40.1041 27.3932 40.1041C19.8395 40.1041 13.6966 34.1887 13.6966 26.9148C13.6966 19.6409 19.8395 13.7254 27.3932 13.7254ZM27.3932 18.1219C24.9715 18.1219 22.649 19.0483 20.9366 20.6973C19.2241 22.3462 18.2621 24.5827 18.2621 26.9148C18.2621 29.2468 19.2241 31.4833 20.9366 33.1323C22.649 34.7812 24.9715 35.7076 27.3932 35.7076C29.8149 35.7076 32.1374 34.7812 33.8498 33.1323C35.5622 31.4833 36.5243 29.2468 36.5243 26.9148C36.5243 24.5827 35.5622 22.3462 33.8498 20.6973C32.1374 19.0483 29.8149 18.1219 27.3932 18.1219Z" fill="#039960"/>
</svg>
