<svg width="84" height="60" viewBox="0 0 84 60" fill="none" xmlns="http://www.w3.org/2000/svg">
<path d="M78.972 0.919983H5.05673C2.6797 0.919983 0.734375 3.08202 0.734375 5.21998C0.734375 7.35794 2.6797 9.51826 5.05673 9.51826H6.10077V18.1183H78.0329V9.51826H78.972C81.3508 9.51826 83.2944 7.35794 83.2944 5.21998C83.2944 3.08202 81.3508 0.919983 78.972 0.919983ZM42.0144 13.8544C40.8207 13.8544 39.8541 12.8585 39.8541 11.6321C39.8541 10.4058 40.8207 9.4099 42.0144 9.4099C43.2098 9.4099 44.1747 10.4058 44.1747 11.6321C44.1747 12.8585 43.2098 13.8544 42.0144 13.8544ZM6.10077 35.3165H78.0329V21.56H6.10077V35.3165ZM42.0144 26.0733C43.2098 26.0733 44.1747 27.0674 44.1747 28.2938C44.1747 29.5219 43.2098 30.516 42.0144 30.516C40.8207 30.516 39.8541 29.5219 39.8541 28.2938C39.8523 27.0674 40.8207 26.0733 42.0144 26.0733ZM6.10077 47.1794V57.1795C6.10077 58.4007 6.25385 59.4017 7.44237 59.4017H16.0837C17.2722 59.4017 17.8105 58.4007 17.8105 57.1795V50.7983H66.3231V57.1795C66.3231 58.4007 66.7566 59.4017 67.9434 59.4017H76.5864C77.7715 59.4017 78.0312 58.4007 78.0312 57.1795V38.76H6.10077V47.1794ZM42.0144 42.7366C43.2098 42.7366 44.1747 43.7325 44.1747 44.9571C44.1747 46.1869 43.2098 47.1777 42.0144 47.1777C40.8207 47.1777 39.8541 46.1869 39.8541 44.9571C39.8523 43.7342 40.8207 42.7366 42.0144 42.7366Z" fill="#0A3625"/>
</svg>
