<svg width="57" height="57" viewBox="0 0 57 57" fill="none" xmlns="http://www.w3.org/2000/svg">
<path d="M28.5914 0C12.9032 0 0.183594 12.7196 0.183594 28.4078C0.183594 33.7371 1.68054 38.7057 4.23392 42.9677L0.437895 56.8155L14.5817 53.1027C18.7181 55.4545 23.4933 56.8155 28.5914 56.8155C44.2795 56.8155 56.9991 44.0959 56.9991 28.4078C56.9991 12.7196 44.2795 0 28.5914 0ZM18.8678 15.1564C19.3294 15.1564 19.8037 15.1535 20.2133 15.1748C20.7199 15.1867 21.2713 15.2238 21.7992 16.3909C22.4265 17.7781 23.7925 21.2583 23.9677 21.611C24.1429 21.9637 24.267 22.3792 24.0232 22.8409C23.7912 23.3143 23.6705 23.6009 23.3296 24.0199C22.9769 24.4271 22.5904 24.9328 22.2708 25.2406C21.9181 25.5933 21.5539 25.98 21.961 26.6831C22.3682 27.3862 23.7823 29.6911 25.8726 31.5518C28.5595 33.9523 30.8265 34.69 31.532 35.0427C32.2375 35.3954 32.646 35.3405 33.0532 34.867C33.4722 34.4054 34.813 32.8214 35.2864 32.1159C35.748 31.4105 36.2193 31.5325 36.8585 31.7645C37.5071 31.9965 40.9662 33.7005 41.6717 34.0532C42.3771 34.406 42.8396 34.5806 43.0172 34.867C43.1995 35.1629 43.1996 36.5716 42.6149 38.2145C42.0302 39.8551 39.1589 41.4416 37.871 41.5528C36.5714 41.6736 35.3585 42.137 29.4236 39.8005C22.2649 36.981 17.7502 29.6488 17.3975 29.1753C17.0447 28.7137 14.5308 25.3632 14.5308 21.9069C14.5308 18.4388 16.3492 16.7403 16.986 16.0348C17.6346 15.3294 18.3943 15.1564 18.8678 15.1564Z" fill="#089C64"/>
</svg>
