<svg width="165" height="145" viewBox="0 0 165 145" fill="none" xmlns="http://www.w3.org/2000/svg">
<path d="M85.0002 0.873055C84.2337 0.871687 83.4767 1.04225 82.7848 1.3722C82.093 1.70215 81.484 2.18307 81.0027 2.77955L80.0904 3.45605C62.4092 -2.01745 42.2372 2.00055 28.1947 15.5306C22.3141 21.1105 17.9395 28.0864 15.4773 35.8099C13.015 43.5335 12.5451 51.7542 14.1112 59.7081C13.9371 59.8617 13.7662 60.0189 13.5987 60.1796L5.6139 67.8671C4.06932 69.3323 2.83927 71.0967 1.99869 73.0528C1.15811 75.0088 0.724609 77.1155 0.724609 79.2446C0.724609 81.3736 1.15811 83.4803 1.99869 85.4363C2.83927 87.3924 4.06932 89.1568 5.6139 90.6221C9.6934 94.5581 15.3514 96.0341 20.6097 95.0501C21.2554 98.0123 22.7622 100.831 25.1504 103.127C28.2972 106.161 32.3869 107.729 36.5074 107.842C36.6202 111.809 38.2499 115.745 41.3966 118.779C44.5434 121.813 48.6434 123.391 52.7639 123.494C52.8664 127.461 54.5064 131.407 57.6532 134.441C60.6657 137.3 64.612 138.971 68.7616 139.144C72.9112 139.317 76.9831 137.982 80.2237 135.384L84.7029 139.689C91.2629 146.013 101.902 146.013 108.462 139.689C111.599 136.675 113.229 132.76 113.372 128.803C117.585 128.695 121.606 127.017 124.647 124.099C127.784 121.075 129.413 117.159 129.536 113.203C133.702 113.057 137.668 111.382 140.678 108.498C143.169 106.11 144.706 103.148 145.301 100.052C147.939 100.515 150.649 100.351 153.213 99.5751C155.777 98.7989 158.122 97.4315 160.061 95.5831C161.607 94.1177 162.839 92.3526 163.68 90.3956C164.522 88.4386 164.956 86.3307 164.956 84.2004C164.956 82.0702 164.522 79.9622 163.68 78.0052C162.839 76.0482 161.607 74.2832 160.061 72.8178L152.681 65.7146L154.188 60.0771C157.236 48.5517 155.692 36.2933 149.883 25.8831C141.314 10.4466 124.688 0.914055 106.71 0.914055H94.1022C93.5593 0.887148 93.0159 0.873478 92.4724 0.873055H85.0002ZM110.143 38.9621L134.795 62.7113L134.825 62.7318L152.671 79.9313C153.25 80.481 153.712 81.1431 154.027 81.877C154.343 82.611 154.506 83.4015 154.506 84.2004C154.506 84.9993 154.343 85.7899 154.027 86.5238C153.712 87.2578 153.25 87.9198 152.671 88.4696C151.473 89.6035 149.887 90.2355 148.238 90.2355C146.588 90.2355 145.002 89.6035 143.804 88.4696L130.264 75.4316C129.272 74.4794 127.95 73.9477 126.574 73.9477C125.199 73.9477 123.877 74.4794 122.884 75.4316L122.741 75.5546C122.257 76.0124 121.873 76.5639 121.609 77.1754C121.346 77.7869 121.211 78.4456 121.211 79.1113C121.211 79.777 121.346 80.4357 121.609 81.0472C121.873 81.6587 122.257 82.2102 122.741 82.6681L133.298 92.8361C135.758 95.1936 135.758 99.0271 133.298 101.395C132.209 102.426 130.796 103.047 129.299 103.15C127.803 103.253 126.318 102.831 125.098 101.959C124.08 101.223 122.837 100.868 121.584 100.954C120.331 101.04 119.149 101.562 118.241 102.43C117.354 103.278 116.818 104.429 116.74 105.654C116.663 106.878 117.048 108.088 117.821 109.041C118.741 110.194 119.195 111.65 119.092 113.121C118.989 114.592 118.338 115.971 117.267 116.985C116.163 118.032 114.725 118.656 113.206 118.746C111.687 118.836 110.185 118.386 108.965 117.477C107.952 116.717 106.703 116.34 105.439 116.411C104.175 116.482 102.977 116.998 102.056 117.867C101.158 118.713 100.613 119.869 100.531 121.101C100.449 122.333 100.837 123.55 101.615 124.509C102.557 125.676 103.024 127.156 102.923 128.653C102.823 130.15 102.162 131.554 101.072 132.586C99.8589 133.737 98.2501 134.379 96.5775 134.379C94.9049 134.379 93.2961 133.737 92.0829 132.586L87.6447 128.311L89.2642 126.753C90.8103 125.288 92.0418 123.523 92.8833 121.566C93.7248 119.609 94.1589 117.501 94.1589 115.371C94.1589 113.24 93.7248 111.132 92.8833 109.175C92.0418 107.218 90.8103 105.453 89.2642 103.988C86.2009 101.052 82.1491 99.37 77.9072 99.2731C77.7827 95.1226 76.0258 91.1887 73.0179 88.326C69.9504 85.3915 65.8947 83.7129 61.6507 83.6213C61.5262 79.4708 59.7693 75.537 56.7614 72.6743C54.7922 70.8001 52.405 69.4218 49.7973 68.6536C47.1896 67.8853 44.4364 67.7492 41.7657 68.2566C41.09 65.1722 39.5089 62.3597 37.2249 60.1796C35.474 58.5087 33.3876 57.2297 31.1043 56.4273C28.821 55.625 26.3931 55.3178 23.9819 55.5261C23.1744 49.5197 23.8032 43.4075 25.8167 37.6914C27.8301 31.9753 31.1708 26.8183 35.5644 22.6441C40.0041 18.4025 45.3271 15.1957 51.152 13.2535C56.9769 11.3112 63.1594 10.6817 69.2562 11.4101L54.3424 22.3776C52.4342 23.7641 50.8268 25.5229 49.6173 27.5479C48.4078 29.5729 47.6212 31.8221 47.3051 34.1595C46.989 36.497 47.1498 38.8742 47.778 41.1478C48.4062 43.4213 49.4886 45.544 50.9599 47.3876C53.9355 51.1186 58.2351 53.5586 62.964 54.2001C67.693 54.8416 72.4872 53.6351 76.3492 50.8316L92.5032 38.9723H110.133L110.143 38.9621ZM60.4104 30.6288L86.9784 11.1231H92.4724C92.975 11.1204 93.4775 11.1341 93.9792 11.1641H106.71C121.101 11.1641 134.231 18.8003 140.924 30.8646C145.455 39.0236 146.644 48.5048 144.276 57.4531L144.245 57.5556L115.955 30.2188C114.996 29.257 113.695 28.7151 112.337 28.7121H90.8119C89.724 28.7141 88.665 29.0624 87.7882 29.7063L70.2812 42.5598C68.5615 43.7912 66.4363 44.3189 64.3404 44.035C62.2445 43.7511 60.3363 42.677 59.0062 41.0326C58.3863 40.269 57.9293 39.3867 57.6633 38.4398C57.3974 37.493 57.328 36.5018 57.4595 35.5272C57.5911 34.5525 57.9208 33.6151 58.4283 32.7727C58.9357 31.9303 59.6103 31.2007 60.4104 30.6288ZM64.9409 118.881L65.0434 118.779L73.0179 111.091L73.1102 111.009C74.3143 109.914 75.8879 109.315 77.5153 109.333C79.1426 109.35 80.7033 109.982 81.8841 111.102C82.4638 111.651 82.9255 112.313 83.241 113.047C83.5565 113.781 83.7192 114.572 83.7192 115.371C83.7192 116.17 83.5565 116.96 83.241 117.694C82.9255 118.428 82.4638 119.09 81.8841 119.64L73.8994 127.327C72.702 128.461 71.1155 129.093 69.4663 129.093C67.8171 129.093 66.2306 128.461 65.0331 127.327C64.4611 126.786 64.0036 126.135 63.6878 125.413C63.372 124.691 63.2043 123.914 63.1948 123.126C63.1852 122.338 63.3339 121.557 63.6321 120.828C63.9303 120.098 64.3821 119.437 64.9409 118.881ZM65.7302 103.896L65.6277 103.988L57.6532 111.676L57.5507 111.768C56.3458 112.858 54.7736 113.454 53.1487 113.435C51.5237 113.416 49.9659 112.784 48.7869 111.665C48.2137 111.121 47.7559 110.468 47.4409 109.743C47.1259 109.018 46.9601 108.237 46.9534 107.447C46.9467 106.657 47.0993 105.874 47.4019 105.144C47.7046 104.414 48.1512 103.752 48.7151 103.199L48.7869 103.127L56.7614 95.4396L56.8331 95.3678C58.0359 94.2643 59.6123 93.658 61.2445 93.6714C62.8767 93.6847 64.4431 94.3166 65.6277 95.4396C66.2013 95.9813 66.6602 96.6328 66.9769 97.3554C67.2936 98.0781 67.4618 98.857 67.4713 99.646C67.4809 100.435 67.3317 101.218 67.0325 101.948C66.7334 102.678 66.2905 103.34 65.7302 103.896ZM49.3814 88.326L41.3966 96.0135L41.3249 96.0853C40.1222 97.1888 38.5457 97.7951 36.9135 97.7818C35.2813 97.7684 33.7149 97.1365 32.5304 96.0135C31.9507 95.4638 31.4891 94.8018 31.1736 94.0678C30.8581 93.3339 30.6954 92.5433 30.6954 91.7444C30.6954 90.9455 30.8581 90.155 31.1736 89.421C31.4891 88.6871 31.9507 88.025 32.5304 87.4753L40.5049 79.7878C41.7029 78.6508 43.2915 78.017 44.9431 78.017C46.5948 78.017 48.1834 78.6508 49.3814 79.7878C49.9562 80.3319 50.4153 80.9863 50.7313 81.7119C51.0472 82.4376 51.2135 83.2195 51.2202 84.0109C51.2269 84.8023 51.0739 85.587 50.7702 86.3179C50.4666 87.0487 50.0187 87.7108 49.4532 88.2646L49.3814 88.326ZM29.8449 75.8313L21.8704 83.5188C20.6736 84.6581 19.0845 85.2935 17.4322 85.2935C15.7798 85.2935 14.1907 84.6581 12.9939 83.5188C12.4126 82.9689 11.9496 82.3063 11.6331 81.5714C11.3167 80.8365 11.1535 80.0447 11.1535 79.2446C11.1535 78.4444 11.3167 77.6527 11.6331 76.9177C11.9496 76.1828 12.4126 75.5202 12.9939 74.9703L20.9787 67.2828C22.1761 66.1488 23.7626 65.5168 25.4118 65.5168C27.061 65.5168 28.6474 66.1488 29.8449 67.2828C30.4262 67.8327 30.8892 68.4953 31.2057 69.2302C31.5221 69.9652 31.6853 70.7569 31.6853 71.5571C31.6853 72.3572 31.5221 73.149 31.2057 73.8839C30.8892 74.6188 30.4262 75.2814 29.8449 75.8313Z" fill="black"/>
</svg>
