<svg width="83" height="91" viewBox="0 0 83 91" fill="none" xmlns="http://www.w3.org/2000/svg">
<path d="M43.8101 81.2882C41.6514 82.1101 39.2707 82.0032 37.1869 80.9908C35.1031 79.9784 33.4852 78.1426 32.6862 75.8837C32.281 74.7667 32.0933 73.5759 32.1339 72.3816C32.1746 71.1872 32.443 70.0135 32.9231 68.9297C33.4032 67.846 34.0854 66.8742 34.9293 66.0716C35.7733 65.269 36.7619 64.652 37.8369 64.257C42.3384 62.5312 47.316 64.9382 48.9608 69.6162C49.7441 71.8812 49.6422 74.3792 48.6773 76.5657C47.7125 78.7522 45.9629 80.4498 43.8101 81.2882ZM34.8503 55.7187C25.8906 59.1249 21.2593 69.5707 24.4623 79.0174C26.0899 83.5313 29.3458 87.1914 33.5255 89.2057C37.7052 91.2201 42.4728 91.4268 46.7966 89.7812C55.7563 86.3749 60.3444 75.9291 57.0981 66.5278C53.8086 57.0812 43.8101 52.3124 34.8503 55.7187ZM60.9937 11.8008L32.5563 22.7916L38.5294 39.7774L66.9668 28.832M79.9519 52.8574L59.2623 60.8053C59.9981 62.1224 60.6041 63.4849 61.1235 64.9383C61.6429 66.3916 61.9892 67.8903 62.2056 69.3437L82.8952 61.3957M76.5758 29.9674L40.0011 44.0466L42.122 50.0416C47.5325 50.4503 52.5966 52.9482 56.4489 57.0812L82.5489 47.0441M0.65625 0.083252V9.16658H14.0309L29.4832 53.4478C31.9505 51.8377 34.7045 50.7715 37.5772 50.3141L20.1339 0.083252" fill="#0A3625"/>
</svg>
