<svg width="139" height="11" viewBox="0 0 139 11" fill="none" xmlns="http://www.w3.org/2000/svg">
<path d="M-1.19255e-08 10.0029L-1.83213e-10 0.404162L6.93873 0.404162L6.93873 2.32392L2.42719 2.32392L2.42719 4.16198L6.60963 4.16198L6.60963 6.09535L2.42719 6.09535L2.42719 8.06956L6.93873 8.06956L6.93873 10.0029L-1.19255e-08 10.0029ZM8.02946 10.0029L8.02946 0.404162L10.2235 0.404162L13.3912 7.44326L12.9387 7.44326L16.0926 0.404162L18.3004 0.404162L18.3004 10.0029L16.0104 10.0029L16.0104 4.12113L16.6 4.12113L13.8574 10.0029L12.4313 10.0029L9.67501 4.12113L10.3058 4.12113L10.3058 10.0029L8.02946 10.0029ZM19.8334 10.0029L19.8334 0.404162L24.5781 0.404162C25.6933 0.404162 26.5344 0.676468 27.1012 1.22108C27.668 1.75664 27.9514 2.4873 27.9514 3.41314C27.9514 4.32992 27.668 5.06059 27.1012 5.6052C26.5344 6.14981 25.6933 6.42211 24.5781 6.42211L22.3703 6.42211L22.3703 10.0029L19.8334 10.0029ZM22.3703 4.48874L24.249 4.48874C24.6786 4.48874 24.9986 4.398 25.2089 4.21644C25.4191 4.02583 25.5243 3.75808 25.5243 3.41314C25.5243 3.06826 25.4191 2.80045 25.2089 2.60984C24.9986 2.41922 24.6786 2.32392 24.249 2.32392L22.3703 2.32392L22.3703 4.48874ZM28.9331 10.0029L28.9331 0.404162L33.4993 0.404162C34.6148 0.404162 35.4739 0.667413 36.0773 1.19385C36.6903 1.72035 36.9961 2.45102 36.9961 3.38591C36.9961 4.01221 36.8589 4.54777 36.5847 4.99251C36.3104 5.4282 35.9127 5.76858 35.3917 6.01366C34.8706 6.24968 34.2494 6.36765 33.5267 6.36765L33.6501 6.02727L34.3358 6.02727C34.7382 6.02727 35.0948 6.13619 35.4054 6.35404C35.7166 6.57188 35.9724 6.87598 36.1733 7.26626L37.6406 10.0029L34.8706 10.0029L33.2936 6.93949C33.1935 6.73983 33.0426 6.60367 32.841 6.53104C32.6491 6.45847 32.4297 6.42211 32.1828 6.42211L31.4698 6.42211L31.4698 10.0029L28.9331 10.0029ZM31.4698 4.63851L33.0605 4.63851C33.5541 4.63851 33.9292 4.54321 34.1849 4.35259C34.4413 4.15292 34.5689 3.85795 34.5689 3.4676C34.5689 3.08637 34.4413 2.80045 34.1849 2.60984C33.9292 2.41922 33.5541 2.32392 33.0605 2.32392L31.4698 2.32392L31.4698 4.63851ZM38.4345 10.0029L38.4345 0.404162L45.3733 0.404162L45.3733 2.32392L40.8617 2.32392L40.8617 4.16198L45.0442 4.16198L45.0442 6.09535L40.8617 6.09535L40.8617 8.06956L45.3733 8.06956L45.3733 10.0029L38.4345 10.0029ZM49.9232 10.1527C49.1457 10.1527 48.4052 10.062 47.7017 9.8804C47.0065 9.68978 46.4216 9.43565 45.9465 9.11794L46.6596 7.17095C46.9612 7.36157 47.2903 7.52495 47.6469 7.6611C48.0034 7.79726 48.3737 7.90618 48.7576 7.98787C49.1505 8.06051 49.5482 8.09679 49.9507 8.09679C50.554 8.09679 50.9695 8.01966 51.1985 7.86533C51.4358 7.71107 51.5551 7.51134 51.5551 7.26626C51.5551 7.04842 51.4769 6.88054 51.3219 6.7625C51.1663 6.63547 50.8735 6.52654 50.4443 6.43573L48.7713 6.09535C47.8841 5.91386 47.2218 5.6007 46.783 5.15589C46.3441 4.7021 46.1247 4.11208 46.1247 3.38591C46.1247 2.75055 46.2934 2.20138 46.6321 1.73846C46.9791 1.26649 47.4638 0.903435 48.0857 0.649238C48.7069 0.386054 49.4337 0.254395 50.2661 0.254395C50.9517 0.254395 51.5962 0.349702 52.1996 0.540315C52.8029 0.721875 53.2966 0.976004 53.6806 1.30277L52.9675 3.12722C52.6014 2.86403 52.19 2.6643 51.7333 2.52815C51.276 2.38294 50.7686 2.3103 50.2112 2.3103C49.6805 2.3103 49.2787 2.39199 49.0045 2.55538C48.7391 2.7097 48.6068 2.93211 48.6068 3.22252C48.6068 3.42226 48.6843 3.5947 48.8399 3.7399C49.0045 3.87606 49.3013 3.98954 49.7312 4.08029L51.3768 4.40705C52.2633 4.57956 52.9263 4.88815 53.3652 5.33289C53.8129 5.7777 54.0371 6.3586 54.0371 7.07565C54.0371 7.6929 53.8629 8.23295 53.516 8.69587C53.1773 9.15878 52.7021 9.51734 52.0899 9.77147C51.4769 10.0257 50.7549 10.1527 49.9232 10.1527ZM53.9144 10.0029L58.4396 0.404162L60.4966 0.404162L65.0492 10.0029L62.5124 10.0029L61.3468 7.36157L62.3204 8.05595L56.6432 8.05595L57.6031 7.36157L56.4513 10.0029L53.9144 10.0029ZM59.4544 2.99106L57.85 6.78973L57.466 6.14981L61.4839 6.14981L61.1411 6.78973L59.5229 2.99106L59.4544 2.99106ZM68.8861 10.1527C68.1086 10.1527 67.3681 10.062 66.6646 9.8804C65.9694 9.68978 65.3845 9.43565 64.9094 9.11794L65.6224 7.17095C65.9241 7.36157 66.2532 7.52495 66.6098 7.6611C66.9663 7.79726 67.3366 7.90618 67.7205 7.98787C68.1134 8.06051 68.5111 8.09679 68.9135 8.09679C69.5169 8.09679 69.9324 8.01966 70.1614 7.86533C70.3987 7.71107 70.518 7.51134 70.518 7.26626C70.518 7.04842 70.4398 6.88054 70.2848 6.7625C70.1292 6.63547 69.8364 6.52654 69.4072 6.43573L67.7342 6.09535C66.847 5.91386 66.1847 5.6007 65.7459 5.15589C65.3071 4.7021 65.0876 4.11208 65.0876 3.38591C65.0876 2.75055 65.2563 2.20138 65.595 1.73846C65.942 1.26649 66.4267 0.903435 67.0486 0.649238C67.6698 0.386054 68.3966 0.254395 69.2289 0.254395C69.9146 0.254395 70.5591 0.349702 71.1625 0.540315C71.7658 0.721875 72.2595 0.976004 72.6435 1.30277L71.9304 3.12722C71.5643 2.86403 71.1529 2.6643 70.6962 2.52815C70.2389 2.38294 69.7315 2.3103 69.1741 2.3103C68.6434 2.3103 68.2416 2.39199 67.9674 2.55538C67.702 2.7097 67.5697 2.93211 67.5697 3.22252C67.5697 3.42226 67.6472 3.5947 67.8028 3.7399C67.9674 3.87606 68.2642 3.98954 68.6941 4.08029L70.3397 4.40705C71.2262 4.57956 71.8892 4.88815 72.3281 5.33289C72.7758 5.7777 73 6.3586 73 7.07565C73 7.6929 72.8258 8.23295 72.4789 8.69587C72.1402 9.15878 71.665 9.51734 71.0528 9.77147C70.4398 10.0257 69.7178 10.1527 68.8861 10.1527Z" fill="white"/>
<path d="M80 9.73538L80 0.162929L82.5631 0.162929L85.4808 6.66658L85.0172 6.66658L87.9349 0.162929L90.498 0.162929L90.498 9.73538L87.8394 9.73538L87.8394 4.56206L88.4938 4.56206L86.0398 9.73538L84.4173 9.73538L81.9633 4.56206L82.6586 4.56206L82.6586 9.73538L80 9.73538ZM91.6106 4.94223C91.6106 3.95561 91.8105 3.09113 92.2105 2.34892C92.6195 1.6067 93.1966 1.03189 93.942 0.624566C94.6873 0.20821 95.5689 2.17746e-08 96.5869 2.31984e-08C97.6139 2.46348e-08 98.5001 0.208211 99.2455 0.624566C99.9908 1.03189 100.568 1.6067 100.977 2.34892C101.386 3.09113 101.591 3.95561 101.591 4.94223C101.591 5.92884 101.386 6.79332 100.977 7.53554C100.568 8.27776 99.9908 8.85711 99.2455 9.27374C98.5001 9.68989 97.6139 9.89831 96.5869 9.89831C95.5689 9.89831 94.6873 9.68989 93.942 9.27374C93.1966 8.85711 92.6195 8.27776 92.2105 7.53554C91.8105 6.78423 91.6106 5.91981 91.6106 4.94223ZM94.6918 4.94223C94.6918 5.73875 94.8418 6.35884 95.1417 6.80235C95.4507 7.24586 95.9325 7.46765 96.5869 7.46765C97.2413 7.46765 97.723 7.24586 98.0321 6.80235C98.3502 6.34974 98.5093 5.72973 98.5093 4.94223C98.5093 4.15473 98.3502 3.53919 98.0321 3.09568C97.723 2.65217 97.2413 2.43038 96.5869 2.43038C95.9325 2.43038 95.4507 2.65217 95.1417 3.09568C94.8418 3.53016 94.6918 4.1457 94.6918 4.94223ZM102.674 9.73538L102.674 0.162929L106.751 0.162929C107.914 0.162929 108.891 0.357564 109.682 0.746764C110.481 1.13596 111.086 1.68817 111.495 2.40323C111.904 3.10926 112.109 3.95561 112.109 4.94223C112.109 5.91981 111.904 6.76617 111.495 7.48123C111.086 8.19629 110.481 8.75297 109.682 9.15154C108.891 9.54054 107.914 9.73538 106.751 9.73538L102.674 9.73538ZM105.619 7.37261L106.573 7.37261C107.464 7.37261 108.123 7.17349 108.55 6.77519C108.977 6.3769 109.191 5.76591 109.191 4.94223C109.191 4.10945 108.977 3.49846 108.55 3.10926C108.123 2.72006 107.464 2.52543 106.573 2.52543L105.619 2.52543L105.619 7.37261ZM113.186 9.73538L113.186 0.162929L120.316 0.162929L120.316 2.38965L115.994 2.38965L115.994 3.76098L119.989 3.76098L119.989 5.9877L115.994 5.9877L115.994 7.50838L120.316 7.50838L120.316 9.73538L113.186 9.73538ZM121.208 9.73538L121.208 0.162929L124.153 0.162929L124.153 7.3183L128.052 7.3183L128.052 9.73538L121.208 9.73538ZM128.173 4.94223C128.173 3.95561 128.372 3.09113 128.773 2.34892C129.182 1.6067 129.758 1.03189 130.504 0.624566C131.249 0.208211 132.13 7.29095e-08 133.149 7.43339e-08C134.176 7.57697e-08 135.062 0.208211 135.808 0.624566C136.553 1.03189 137.13 1.6067 137.539 2.34892C137.948 3.09113 138.153 3.95561 138.153 4.94223C138.153 5.92884 137.948 6.79332 137.539 7.53554C137.13 8.27776 136.553 8.85711 135.808 9.27374C135.062 9.68989 134.176 9.89831 133.149 9.89831C132.13 9.89831 131.249 9.68989 130.504 9.27374C129.758 8.85711 129.182 8.27776 128.773 7.53554C128.372 6.78423 128.173 5.91981 128.173 4.94223ZM131.254 4.94223C131.254 5.73875 131.404 6.35884 131.704 6.80235C132.013 7.24586 132.495 7.46765 133.149 7.46765C133.803 7.46765 134.285 7.24586 134.594 6.80235C134.912 6.34974 135.071 5.72973 135.071 4.94223C135.071 4.15473 134.912 3.53919 134.594 3.09568C134.285 2.65217 133.803 2.43038 133.149 2.43038C132.495 2.43038 132.013 2.65217 131.704 3.09568C131.404 3.53016 131.254 4.1457 131.254 4.94223Z" fill="#FDF10F"/>
</svg>
