<svg width="83" height="60" viewBox="0 0 83 60" fill="none" xmlns="http://www.w3.org/2000/svg">
<path d="M0.75 13.5H36.5L39.25 19H3.5L0.75 13.5ZM4.41667 24.5H40.1667L42.9167 30H7.16667L4.41667 24.5ZM64 53.8334C67.0433 53.8334 69.5 51.3767 69.5 48.3334C69.5 45.29 67.0433 42.8334 64 42.8334C60.9567 42.8334 58.5 45.29 58.5 48.3334C58.5 51.3767 60.9567 53.8334 64 53.8334ZM69.5 20.8334H60.3333V30H76.6867L69.5 20.8334ZM27.3333 53.8334C30.3767 53.8334 32.8333 51.3767 32.8333 48.3334C32.8333 45.29 30.3767 42.8334 27.3333 42.8334C24.29 42.8334 21.8333 45.29 21.8333 48.3334C21.8333 51.3767 24.29 53.8334 27.3333 53.8334ZM71.3333 15.3334L82.3333 30V48.3334H75C75 54.42 70.0867 59.3334 64 59.3334C57.9133 59.3334 53 54.42 53 48.3334H38.3333C38.3333 54.42 33.3833 59.3334 27.3333 59.3334C21.2467 59.3334 16.3333 54.42 16.3333 48.3334H9V35.5H16.3333V41H19.12C21.1367 38.7634 24.07 37.3334 27.3333 37.3334C30.5967 37.3334 33.53 38.7634 35.5467 41H53V8.00002H9C9 3.93002 12.2633 0.666687 16.3333 0.666687H60.3333V15.3334H71.3333Z" fill="#0A3625"/>
</svg>
