<svg width="70" height="72" viewBox="0 0 70 72" fill="none" xmlns="http://www.w3.org/2000/svg">
<path d="M35.1358 71.8334C16.2745 71.8334 0.985352 55.7908 0.985352 36.0001C0.985352 16.2093 16.2745 0.166748 35.1358 0.166748C53.997 0.166748 69.2862 16.2093 69.2862 36.0001C69.2862 55.7908 53.997 71.8334 35.1358 71.8334ZM35.1358 64.6667C42.3816 64.6667 49.3306 61.6465 54.4542 56.2705C59.5777 50.8944 62.4561 43.603 62.4561 36.0001C62.4561 28.3972 59.5777 21.1057 54.4542 15.7297C49.3306 10.3536 42.3816 7.33341 35.1358 7.33341C27.89 7.33341 20.9409 10.3536 15.8174 15.7297C10.6938 21.1057 7.81543 28.3972 7.81543 36.0001C7.81543 43.603 10.6938 50.8944 15.8174 56.2705C20.9409 61.6465 27.89 64.6667 35.1358 64.6667ZM23.1831 43.1667H41.9658C42.4187 43.1667 42.853 42.978 43.1732 42.642C43.4935 42.306 43.6734 41.8503 43.6734 41.3751C43.6734 40.8999 43.4935 40.4442 43.1732 40.1082C42.853 39.7722 42.4187 39.5834 41.9658 39.5834H28.3057C26.0414 39.5834 23.8698 38.6396 22.2687 36.9596C20.6676 35.2796 19.7681 33.001 19.7681 30.6251C19.7681 28.2492 20.6676 25.9706 22.2687 24.2906C23.8698 22.6106 26.0414 21.6667 28.3057 21.6667H31.7207V14.5001H38.5508V21.6667H47.0884V28.8334H28.3057C27.8528 28.8334 27.4185 29.0222 27.0983 29.3582C26.7781 29.6942 26.5982 30.1499 26.5982 30.6251C26.5982 31.1003 26.7781 31.556 27.0983 31.892C27.4185 32.228 27.8528 32.4167 28.3057 32.4167H41.9658C44.2302 32.4167 46.4017 33.3606 48.0028 35.0406C49.604 36.7206 50.5034 38.9992 50.5034 41.3751C50.5034 43.751 49.604 46.0296 48.0028 47.7096C46.4017 49.3896 44.2302 50.3334 41.9658 50.3334H38.5508V57.5001H31.7207V50.3334H23.1831V43.1667Z" fill="#0A3625"/>
</svg>
