<svg width="19" height="18" viewBox="0 0 19 18" fill="none" xmlns="http://www.w3.org/2000/svg">
<path d="M5.44643 0C2.44305 0 0 2.35475 0 5.24764V12.7422C0 15.6343 2.44532 17.9869 5.44947 17.9869H13.2323C16.2356 17.9869 18.6787 15.6321 18.6787 12.7393V5.24471C18.6787 2.35257 16.2334 0 13.2292 0H5.44643ZM14.7873 2.99782C15.2169 2.99782 15.5656 3.33357 15.5656 3.74727C15.5656 4.16097 15.2169 4.49672 14.7873 4.49672C14.3577 4.49672 14.009 4.16097 14.009 3.74727C14.009 3.33357 14.3577 2.99782 14.7873 2.99782ZM9.33935 4.49672C11.9147 4.49672 14.009 6.5135 14.009 8.99345C14.009 11.4734 11.9147 13.4902 9.33935 13.4902C6.76402 13.4902 4.66967 11.4734 4.66967 8.99345C4.66967 6.5135 6.76402 4.49672 9.33935 4.49672ZM9.33935 5.99563C8.5137 5.99563 7.72186 6.31147 7.13804 6.87367C6.55422 7.43587 6.22623 8.19838 6.22623 8.99345C6.22623 9.78852 6.55422 10.551 7.13804 11.1132C7.72186 11.6754 8.5137 11.9913 9.33935 11.9913C10.165 11.9913 10.9568 11.6754 11.5407 11.1132C12.1245 10.551 12.4525 9.78852 12.4525 8.99345C12.4525 8.19838 12.1245 7.43587 11.5407 6.87367C10.9568 6.31147 10.165 5.99563 9.33935 5.99563Z" fill="white"/>
</svg>
