<svg width="58" height="58" viewBox="0 0 58 58" fill="none" xmlns="http://www.w3.org/2000/svg">
<path d="M29 52.2403C23.6161 52.2403 18.4527 50.1164 14.6457 46.3359C10.8387 42.5554 8.7 37.4279 8.7 32.0814C8.7 26.735 10.8387 21.6075 14.6457 17.8269C18.4527 14.0464 23.6161 11.9225 29 11.9225C34.3839 11.9225 39.5473 14.0464 43.3543 17.8269C47.1613 21.6075 49.3 26.735 49.3 32.0814C49.3 37.4279 47.1613 42.5554 43.3543 46.3359C39.5473 50.1164 34.3839 52.2403 29 52.2403ZM29 6.16286C22.0779 6.16286 15.4392 8.89356 10.5445 13.7542C5.64981 18.6149 2.9 25.2074 2.9 32.0814C2.9 38.9555 5.64981 45.5479 10.5445 50.4086C15.4392 55.2693 22.0779 58 29 58C35.9221 58 42.5608 55.2693 47.4555 50.4086C52.3502 45.5479 55.1 38.9555 55.1 32.0814C55.1 25.2074 52.3502 18.6149 47.4555 13.7542C42.5608 8.89356 35.9221 6.16286 29 6.16286ZM30.45 17.6822H26.1V34.9613L39.875 43.1688L42.05 39.6266L30.45 32.8014V17.6822ZM17.052 4.40616L13.34 0L0 11.0874L3.741 15.4935L17.052 4.40616ZM58 11.1162L44.66 0L40.919 4.40616L54.259 15.5223L58 11.1162Z" fill="#0A3625"/>
</svg>
