<svg width="74" height="74" viewBox="0 0 74 74" fill="none" xmlns="http://www.w3.org/2000/svg">
<path d="M62.8509 11.0033C59.4893 7.60774 55.4852 4.91546 51.0723 3.08354C46.6593 1.25161 41.9257 0.316703 37.1476 0.333348C17.1276 0.333348 0.810912 16.65 0.810912 36.67C0.810912 43.0867 2.49758 49.32 5.65091 54.82L0.517578 73.6667L19.7676 68.6067C25.0842 71.5033 31.0609 73.0434 37.1476 73.0434C57.1676 73.0434 73.4843 56.7267 73.4843 36.7067C73.4843 26.99 69.7076 17.86 62.8509 11.0033ZM37.1476 66.8833C31.7209 66.8833 26.4042 65.4167 21.7476 62.6667L20.6476 62.0067L9.20758 65.0133L12.2509 53.8667L11.5176 52.73C8.50265 47.9156 6.90176 42.3506 6.89758 36.67C6.89758 20.0233 20.4642 6.45668 37.1109 6.45668C45.1776 6.45668 52.7676 9.61002 58.4509 15.33C61.265 18.1312 63.4951 21.4631 65.012 25.1326C66.5289 28.802 67.3024 32.7361 67.2876 36.7067C67.3609 53.3533 53.7942 66.8833 37.1476 66.8833ZM53.7209 44.2967C52.8042 43.8567 48.3309 41.6567 47.5242 41.3267C46.6809 41.0333 46.0942 40.8867 45.4709 41.7667C44.8476 42.6833 43.1242 44.7367 42.6109 45.3233C42.0976 45.9467 41.5476 46.02 40.6309 45.5433C39.7142 45.1033 36.7809 44.1133 33.3342 41.0333C30.6209 38.6133 28.8242 35.6433 28.2742 34.7267C27.7609 33.81 28.2009 33.3333 28.6776 32.8567C29.0809 32.4533 29.5942 31.7933 30.0342 31.28C30.4742 30.7667 30.6576 30.3633 30.9509 29.7767C31.2442 29.1533 31.0976 28.64 30.8776 28.2C30.6576 27.76 28.8242 23.2867 28.0909 21.4534C27.3576 19.6933 26.5876 19.9133 26.0376 19.8767H24.2776C23.6542 19.8767 22.7009 20.0967 21.8576 21.0133C21.0509 21.93 18.7042 24.13 18.7042 28.6033C18.7042 33.0767 21.9676 37.4034 22.4076 37.99C22.8476 38.6133 28.8242 47.78 37.9176 51.7034C40.0809 52.6567 41.7676 53.2067 43.0876 53.61C45.2509 54.3067 47.2309 54.1967 48.8076 53.9767C50.5676 53.72 54.1976 51.7767 54.9309 49.65C55.7009 47.5233 55.7009 45.7267 55.4442 45.3233C55.1876 44.92 54.6376 44.7367 53.7209 44.2967Z" fill="#0A3625"/>
</svg>
