<svg width="317" height="39" viewBox="0 0 317 39" fill="none" xmlns="http://www.w3.org/2000/svg">
<path d="M18.4016 0.583008L22.533 13.8172L35.9026 13.8172L25.0864 21.9964L29.2178 35.2306L18.4016 27.0514L7.58542 35.2306L11.7168 21.9964L0.90064 13.8172L14.2702 13.8172L18.4016 0.583008Z" fill="#FFE607"/>
<path d="M18.4016 0.583008L22.533 13.8172L35.9026 13.8172L25.0864 21.9964L29.2178 35.2306L18.4016 27.0514L7.58542 35.2306L11.7168 21.9964L0.90064 13.8172L14.2702 13.8172L18.4016 0.583008Z" fill="#FFE607"/>
<path d="M88.2532 0.583008L92.3846 13.8172L105.754 13.8172L94.938 21.9964L99.0694 35.2306L88.2532 27.0514L77.437 35.2306L81.5684 21.9964L70.7522 13.8172L84.1218 13.8172L88.2532 0.583008Z" fill="#FFE607"/>
<path d="M88.2532 0.583008L92.3846 13.8172L105.754 13.8172L94.938 21.9964L99.0694 35.2306L88.2532 27.0514L77.437 35.2306L81.5684 21.9964L70.7522 13.8172L84.1218 13.8172L88.2532 0.583008Z" fill="#FFE607"/>
<path d="M158.105 0.583008L162.236 13.8172L175.606 13.8172L164.79 21.9964L168.921 35.2306L158.105 27.0514L147.289 35.2306L151.42 21.9964L140.604 13.8172L153.973 13.8172L158.105 0.583008Z" fill="#FFE607"/>
<path d="M158.105 0.583008L162.236 13.8172L175.606 13.8172L164.79 21.9964L168.921 35.2306L158.105 27.0514L147.289 35.2306L151.42 21.9964L140.604 13.8172L153.973 13.8172L158.105 0.583008Z" fill="#FFE607"/>
<path d="M227.954 0.583008L232.086 13.8172L245.455 13.8172L234.639 21.9964L238.771 35.2306L227.954 27.0514L217.138 35.2306L221.27 21.9964L210.453 13.8172L223.823 13.8172L227.954 0.583008Z" fill="#FFE607"/>
<path d="M227.954 0.583008L232.086 13.8172L245.455 13.8172L234.639 21.9964L238.771 35.2306L227.954 27.0514L217.138 35.2306L221.27 21.9964L210.453 13.8172L223.823 13.8172L227.954 0.583008Z" fill="#FFE607"/>
<path d="M297.806 0.583008L301.937 13.8172L315.307 13.8172L304.491 21.9964L308.622 35.2306L297.806 27.0514L286.99 35.2306L291.121 21.9964L280.305 13.8172L293.674 13.8172L297.806 0.583008Z" fill="#FFE607"/>
<path d="M297.806 0.583008L301.937 13.8172L315.307 13.8172L304.491 21.9964L308.622 35.2306L297.806 27.0514L286.99 35.2306L291.121 21.9964L280.305 13.8172L293.674 13.8172L297.806 0.583008Z" fill="#FFE607"/>
</svg>
