<svg width="28" height="28" viewBox="0 0 28 28" fill="none" xmlns="http://www.w3.org/2000/svg">
<path d="M13.6247 0C6.10048 0 0 6.10048 0 13.6247C0 16.1807 0.717957 18.5638 1.94259 20.6079L0.121966 27.2495L6.90551 25.4688C8.88941 26.5967 11.1797 27.2495 13.6247 27.2495C21.149 27.2495 27.2495 21.149 27.2495 13.6247C27.2495 6.10048 21.149 0 13.6247 0ZM8.96119 7.26919C9.1826 7.26919 9.41008 7.26784 9.60651 7.27806C9.84948 7.28374 10.1139 7.30153 10.3671 7.86128C10.668 8.52662 11.3232 10.1957 11.4072 10.3649C11.4912 10.5341 11.5507 10.7334 11.4338 10.9548C11.3225 11.1819 11.2646 11.3193 11.1011 11.5203C10.932 11.7156 10.7466 11.9581 10.5933 12.1057C10.4241 12.2749 10.2495 12.4604 10.4447 12.7976C10.64 13.1348 11.3183 14.2403 12.3208 15.1327C13.6095 16.284 14.6968 16.6378 15.0351 16.8069C15.3735 16.9761 15.5694 16.9498 15.7647 16.7227C15.9657 16.5013 16.6087 15.7416 16.8358 15.4032C17.0572 15.0649 17.2832 15.1234 17.5898 15.2347C17.9008 15.346 19.5599 16.1632 19.8982 16.3324C20.2366 16.5016 20.4584 16.5853 20.5436 16.7227C20.631 16.8646 20.6311 17.5402 20.3506 18.3282C20.0702 19.115 18.6931 19.8759 18.0754 19.9293C17.4521 19.9872 16.8703 20.2095 14.0239 19.0888C10.5905 17.7366 8.42518 14.2199 8.25601 13.9929C8.08683 13.7715 6.88111 12.1645 6.88111 10.5068C6.88111 8.84348 7.75322 8.02887 8.05864 7.69053C8.36974 7.35218 8.73411 7.26919 8.96119 7.26919Z" fill="white"/>
</svg>
