<svg width="65" height="63" viewBox="0 0 65 63" fill="none" xmlns="http://www.w3.org/2000/svg">
<path d="M34.8419 58.0358C33.6552 60.0169 30.7688 59.9705 29.6464 57.9521L9.02052 20.861C7.43286 18.0059 10.9057 15.0293 13.4843 17.035L30.8816 30.567C31.9366 31.3877 33.4073 31.4114 34.4882 30.6251L52.3127 17.6597C54.9545 15.738 58.3297 18.8249 56.651 21.6273L34.8419 58.0358Z" fill="#0A3625" fill-opacity="0.05"/>
<path d="M33.8419 50.0358C32.6552 52.0169 29.7688 51.9705 28.6464 49.9521L8.02052 12.861C6.43286 10.0059 9.90568 7.02927 12.4843 9.03498L29.8816 22.567C30.9366 23.3877 32.4073 23.4114 33.4882 22.6251L51.3127 9.65966C53.9545 7.73802 57.3297 10.8249 55.651 13.6273L33.8419 50.0358Z" fill="#0A3625"/>
</svg>
